<?xml version="1.0" encoding="UTF-8"?><svg id="a" xmlns="http://www.w3.org/2000/svg" viewBox="0 0 1080 540" width="1080" height="540"><path d="M281.88,164.57c14.02-13.05,28.18-25.93,41.99-39.24,6.51-6.28,12.98-7.68,21.09-4.1,30.25,13.36,60.65,26.29,90.96,39.49,15.01,6.54,19.43,15.26,18.29,33.13-2.7,42.15-5.1,84.33-7.61,126.5-1.79,30.12-3.34,60.27-5.5,90.36-.39,5.48-3.15,10.74-5.04,16.84,2.7,0,5.81-.62,8.56,.21,2.05,.62,3.64,3.11,5.43,4.77-1.75,2.01-3.3,4.35-5.34,5.9-1.05,.79-2.98,.17-4.52,.17-139.64,0-279.28,0-418.93,0-1.32,0-2.94,.53-3.88-.12-2.25-1.56-5.48-3.36-5.95-5.65-.9-4.36,2.42-5.32,5.92-5.31,23.46,.06,46.91,.02,70.37,.01,.87,0,1.74-.09,3.17-.16,1.55-7.58,6.93-8.35,12.97-8.44,7.84-.12,15.67-.73,24.38-1.18-1.24-14.34-2.25-27.95-3.84-41.48-.17-1.48-3.7-3.41-5.75-3.54-22.74-1.44-45.49-2.55-68.24-3.77-15.45-.83-20.87-6.97-20.95-23.74-.2-39.63-.24-79.27-.69-118.9-.14-11.96,4.33-19.26,14.29-23.98,68.73-32.61,137.33-65.54,205.99-98.33,16.95-8.09,30.44,1.74,30.59,22.24,.09,12.53,.02,25.05,.02,37.58,.75,.25,1.5,.5,2.24,.74Zm-60.14,200.71c-1.01-10.59-2.03-21.56-3.12-32.51-2.81-28.31-5.58-56.63-8.54-84.92-1.1-10.53,1.9-18.45,9.59-25.22,14.37-12.66,28.29-25.95,42.05-39.41,2.39-2.33,4.26-6.79,4.3-10.29,.2-15.2-.41-30.4-.65-45.61-.16-10.38-3.12-12.65-11.73-8.74-68.33,31.03-136.61,62.21-205.05,92.93-7.75,3.48-10.79,8.49-10.78,17.27,.04,39.63-.19,79.25-.2,118.88,0,7.84,3.36,11.46,10.51,11.77,45.92,1.99,91.85,4.01,137.78,5.79,11.73,.45,23.49,.07,35.84,.07Zm172.94,56.93v.96c8.11,0,16.22,.15,24.32-.04,8.37-.19,12.82-5.04,13.46-14.24,.32-4.57,.68-9.14,.87-13.72,2.84-68.52,5.61-137.03,8.56-205.54,.33-7.75-2.55-12.28-8.96-14.8-6.18-2.43-12.27-5.14-18.38-7.77-19.56-8.43-39.08-16.98-58.69-25.26-8.44-3.56-12.04-.69-12.19,9.04-.21,13.76-.5,27.53-.58,41.29-.29,54.39-.48,108.77-.76,163.16-.09,17.15-.53,34.3-.51,51.45,0,10.94,4.24,15.39,14.09,15.45,12.92,.08,25.84,.02,38.77,.02Zm-161.34-42.12c1.08,12.28,1.89,23.57,3.17,34.79,.53,4.62,3.53,7,7.91,6.99,26.08-.07,52.16-.12,78.24-.16,5.1,0,7.63-3.13,8.15-8.4,.31-3.11,.34-6.28,.31-9.41-.31-42.06-.73-84.11-.97-126.17-.24-40.86-.27-81.72-.57-122.57-.02-2.58-1.53-5.14-2.34-7.71-2.11,.99-4.55,1.52-6.29,3.03-11.89,10.31-23.5,21.01-35.49,31.16-3.54,3-4.78,6.09-4.73,10.88,.57,54.62,1,109.25,1.37,163.87,.12,17.67-7.58,25.67-23.57,24.91-8.05-.38-16.09-.77-25.2-1.21Zm-65.69,34.41c6.72,0,12.38,.2,18.03-.06,5.34-.24,8.21,1.9,8.6,8.13,.11,1.71,2.05,4.65,3.22,4.69,10.2,.37,20.42,.22,30.54,.22-1.73-16.49-3.38-32.18-5.07-48.25-19.72-1.22-38.81-2.41-58.61-3.64,1.17,13.75,2.24,26.4,3.3,38.9Z"/><path d="M354.26,234.06c12.85,3.06,24.15,5.72,35.44,8.46,11.71,2.84,23.41,5.73,35.1,8.67,3.8,.96,7.71,2.51,6.69,7.9-.99,5.25-4.56,5.19-8.76,4.13-22.11-5.59-44.27-10.89-66.42-16.31-3.61-.88-7.33-2.28-6.26-7.33,.5-2.34,3.09-4.14,4.2-5.53Z"/><path d="M401.37,212.42c.03,6.06-4.16,11.43-8.86,11.34-4.91-.09-9.62-6.31-9.57-12.63,.05-5.94,4.4-11.53,8.94-11.49,4.79,.04,9.45,6.32,9.49,12.78Z"/><path d="M267.09,198.06l-44.46,40.63,10.67,126.93,32.77,1.54s4.07-1.26,4.57-4.9l-3.56-164.19Z"/><path d="M1068.72,322.98c-6.35,.01-12.71,.14-19.06-.06-1.26-.04-2.92-.98-3.67-2.09-4.12-6.09-8.03-12.35-12-18.56-3.04-4.75-3.45-4.92-9.23-3.56v24.01h-19.19c-.08-1.04-.25-2.18-.25-3.33-.02-23.05,.03-46.09-.06-69.13-.01-2.88,.58-4.02,3.44-3.94,11.82,.33,23.7-.35,35.45,.78,15.28,1.47,24.32,16.99,20.37,33.31-1.17,4.84-3.71,8.71-7.43,11.57-1.79,1.37-3.69,2.56-6.03,4.17,5.9,8.48,11.79,16.94,17.68,25.4v1.45Zm-44.05-40.88c4.88,0,9.34,.13,13.79-.03,5.04-.19,7.88-3.58,7.84-8.98-.04-5.35-3.01-9.15-7.69-9.41-3.93-.22-7.87-.17-11.8,.04-.74,.04-2.01,1.41-2.04,2.21-.19,5.16-.1,10.33-.1,16.18Z"/><path d="M648.52,322.72v-76.32c6.49,0,12.82-.1,19.14,.11,.91,.03,1.94,1.38,2.63,2.37,4.84,6.86,9.6,13.79,14.39,20.69,.52,.74,1.09,1.44,1.93,2.53,3.6-5.17,7.02-10.11,10.47-15.03,2.48-3.53,4.4-8.31,7.67-10.15,3.14-1.77,7.71-.49,11.65-.53,2.6-.02,5.21,0,8.01,0v76.42h-18.8v-44.85c-1.19,1.25-1.82,1.8-2.33,2.47-4.35,5.74-8.88,11.35-12.95,17.32-2.42,3.54-5.45,3.85-8.09-.09-4.42-6.57-9.32-12.75-14.64-19.92v44.99h-19.08Z"/><path d="M558.58,185.49c-1.47,1.73-2.29,2.6-3.01,3.55-4.49,5.93-8.95,11.89-13.44,17.82-2.18,2.88-3.58,2.93-5.79-.01-4.41-5.85-8.73-11.77-13.1-17.65-.73-.99-1.55-1.9-2.99-3.65-.21,2.35-.43,3.69-.43,5.04-.03,12.31-.09,24.62,.03,36.92,.03,2.99-.83,4.07-3.58,3.92-3.93-.22-7.89-.13-11.83-.03-2.01,.05-2.68-.85-2.68-3,.04-23.41,.04-46.82,0-70.23,0-2.18,.72-3.01,2.71-2.97,4.82,.09,9.65-.16,14.46,.15,1.37,.09,3.03,1.27,3.93,2.5,4.52,6.21,8.83,12.61,13.23,18.93,.99,1.42,2.03,2.78,3.37,4.59,2.18-3.03,4.15-5.72,6.06-8.46,3.54-5.07,6.94-10.26,10.64-15.18,.95-1.27,2.8-2.28,4.29-2.39,4.48-.31,8.98-.02,13.47-.15,2.21-.06,3.16,.67,3.15,3.26-.06,23.29-.05,46.58,0,69.87,0,2.41-.9,3.14-2.97,3.08-3.94-.12-7.9-.19-11.83,.02-2.67,.15-3.4-.98-3.37-3.77,.1-12.31,.05-24.62,.03-36.92,0-1.37-.17-2.74-.34-5.24Z"/><path d="M701.8,414.14v-75.58c.33-.22,.5-.44,.68-.44,13.25,.05,26.51-.34,39.74,.32,10.05,.5,17.06,7.06,18.71,16.16,1.14,6.3,1.08,14.07-5.58,18.96,2.43,4.18,5.7,8.01,7.09,12.54,3.9,12.75-3.22,24.32-16.22,27.24-2.77,.62-5.64,.91-8.47,.94-10.85,.11-21.69,.05-32.54,.04-1.07,0-2.14-.1-3.4-.17Zm18.89-31.04c0,4.47-.1,8.43,.09,12.38,.04,.73,1.23,1.98,1.92,2,5.14,.16,10.29,.25,15.42,0,3.76-.19,6.15-3.24,6.14-7.08,0-3.77-2.46-7.04-6.09-7.22-5.66-.28-11.34-.07-17.48-.07Zm0-27.59c0,3.55-.11,6.56,.08,9.55,.04,.72,1.05,1.97,1.62,1.97,5.14,.05,10.29,.05,15.41-.28,2.96-.19,4.55-2.54,4.42-5.68-.13-3.08-1.84-5.37-4.75-5.49-5.44-.23-10.9-.07-16.78-.07Z"/><path d="M601.22,244.67c11.64,0,22.36,3.09,29.91,13.5,9.72,13.41,10.31,28.76,4.93,44.13-4.94,14.12-15.67,20.37-28.87,22.18-6.74,.93-13.36,.4-19.83-1.7-16.17-5.26-25.55-21.16-24.17-40.67,1.69-23.86,15.45-37.4,38.03-37.43Zm18.5,40.2c.08-13.16-7.17-21.71-18.42-21.74-10.94-.03-18.68,8.69-18.79,21.2-.12,12.89,7.69,22.09,18.75,22.07,10.86-.02,18.39-8.8,18.47-21.53Z"/><path d="M991.14,275.29v17.88h-32.26c0,3.52-.18,6.64,.13,9.71,.08,.75,1.73,1.87,2.67,1.88,9.65,.14,19.29,.09,28.94,.09,1.18,0,2.36,0,3.76,0v17.9h-54.27v-76.15c1.02-.07,2.07-.2,3.11-.2,15.57-.01,31.14,.05,46.7-.07,2.5-.02,3.58,.62,3.42,3.58-.2,3.73-.18,7.49,0,11.22,.13,2.73-.79,3.53-3.21,3.5-9.32-.12-18.64-.05-27.96-.04-.96,0-1.93,.15-3.09,.24v10.46h32.06Z"/><path d="M590.66,192.92c0-11.35,.07-22.69-.05-34.04-.03-2.86,.81-3.74,3.39-3.72,15.35,.11,30.69,.11,46.04,0,2.6-.02,3.53,.87,3.37,3.73-.18,3.49-.15,7,0,10.5,.11,2.55-.78,3.36-3.05,3.34-9.1-.1-18.2,.06-27.29-.1-2.89-.05-4.11,.68-3.97,4.18,.35,8.69-1.24,7.91,7.2,7.95,7.23,.03,14.47,.09,21.7-.04,2.48-.04,3.65,.68,3.45,3.67-.21,3.12-.16,6.28-.01,9.41,.13,2.6-.89,3.34-3.1,3.31-8.44-.09-16.88,.07-25.32-.08-2.98-.05-4.03,1.01-3.92,4.38,.33,9.81-1.26,8.33,7.68,8.42,8.11,.08,16.23,.15,24.33-.05,2.97-.08,3.85,1.04,3.66,4.17-.21,3.48-.12,7-.03,10.5,.06,2.22-.78,2.95-2.73,2.94-16.22-.05-32.45-.07-48.67,.01-2.64,.01-2.7-1.58-2.7-3.71,.04-11.59,.02-23.18,.02-34.76Z"/><path d="M849.58,246.58h18.91c.09,1.12,.22,2.05,.22,2.99,.01,13.76,.15,27.52-.03,41.28-.28,21.93-13.75,35.31-33.71,33.67-3.15-.26-6.37-.5-9.41-1.35-12.75-3.58-19.95-13.76-21.15-29.54-.13-1.68-.12-3.38-.12-5.07,0-13.87,0-27.75,0-42.15,6.03,0,11.91-.09,17.77,.15,.53,.02,1.41,2.12,1.42,3.27,.1,12.43,.05,24.86,.08,37.3,0,2.29,.07,4.6,.36,6.86,.95,7.64,5.6,12.14,12.46,12.23,6.86,.09,11.55-4.27,12.68-11.93,.31-2.13,.49-4.31,.5-6.47,.05-12.31,.02-24.62,.02-36.93v-4.28Z"/><path d="M625.52,338.21c.93-.1,1.77-.27,2.62-.27,5.24-.02,10.49-.01,16.21-.01v4.2c0,11.83-.03,23.66,.02,35.49,.01,2.64,.18,5.31,.52,7.93,1.01,7.85,5.68,12.16,12.84,12.04,6.85-.12,11.68-4.63,12.27-12.34,.51-6.59,.32-13.26,.36-19.89,.05-8.09,.02-16.17,.01-24.26,0-1.63-.06-3.18,2.11-3.16,5.57,.06,11.15,.02,16.53,.02,.3,.54,.52,.74,.52,.94,.02,15.45,.49,30.92-.09,46.34-.7,18.55-12.21,30.09-29.68,30.72-3.48,.13-7.05,.03-10.47-.66-14.51-2.93-23.32-13.67-23.84-29.94-.49-15.19-.18-30.41-.21-45.62,0-.45,.16-.91,.28-1.52Z"/><path d="M756.81,302.25v20.55h-19.08v-75.84c.39-.25,.58-.47,.76-.47,12.69,.13,25.43-.39,38.07,.61,13.26,1.05,21.78,12.74,21.64,27.75-.13,14.72-8.96,25.62-22.16,26.97-4.89,.5-9.84,.31-14.76,.42-1.29,.03-2.59,0-4.47,0Zm.07-18.35c5.44,0,10.47,.31,15.45-.1,4.18-.34,6.55-4.42,6.39-9.78-.15-4.87-2.93-8.63-7.05-8.89-4.25-.27-8.54-.17-12.8,.02-.69,.03-1.88,1.29-1.9,2.01-.16,5.4-.09,10.81-.09,16.73Z"/><path d="M551.18,298.89c3.77,4.74,7.43,9.34,11.21,14.09-5.35,6.17-11.7,9.67-18.95,11.17-7.2,1.48-14.41,1.19-21.48-.96-14.16-4.29-21.9-14.91-23.85-30.61-2.08-16.75,1.86-31.26,15.04-41.21,14.62-11.05,36.32-8.42,47.77,5.12-3.92,4.3-7.83,8.6-11.8,12.96-10.43-8.22-20.94-8.1-27.78,.65-6.41,8.19-6.06,23.3,.64,31.03,5.49,6.32,17.82,8.81,29.21-2.23Z"/><path d="M561.2,348.4c-3.93,4.32-7.72,8.49-11.72,12.88-5.16-4.88-11.12-7.57-18.24-6.07-4.28,.91-7.77,3.16-10.4,6.97-5.98,8.66-5.39,23.1,1.21,30.46,6.97,7.76,18.32,6.97,29.15-2.25,3.63,4.55,7.28,9.12,11.11,13.91-3.33,4.36-7.45,7.21-12.06,9.08-11.15,4.51-22.4,4.3-33.32-.71-11.47-5.27-17.23-15.54-18.87-28.74-1.83-14.71,1.18-27.88,11.47-38.15,14.01-13.98,39.59-12.65,51.66,2.61Z"/><path d="M714.25,165.98c-3.29,3.53-6.57,7.23-10.09,10.64-.52,.5-2.37-.05-3.23-.7-7.9-5.97-17.56-6.23-24.09,.03-6.68,6.41-8.14,14.89-6.3,24.06,1.53,7.62,5.56,13.32,12.79,14.83,7.29,1.52,12.39,1.07,21.45-6.55,1.68,2.08,3.39,4.19,5.09,6.32,1.73,2.17,3.44,4.35,5.66,7.16-2.81,2.23-5.2,4.76-8.05,6.28-13.62,7.24-27.36,7.07-40.61-.89-9.37-5.63-13.72-15.43-14.92-26.69-1.29-12.11,.58-23.56,7.96-33.31,12.77-16.86,39.64-18.17,53.63-2.57,.21,.24,.31,.61,.7,1.39Z"/><path d="M933.57,264.22h-19.8v58.48h-19.22v-58.41h-19.75v-17.71h58.77v17.65Z"/><path d="M568.4,414.1c0-1.53,0-2.72,0-3.91,0-22.68,.05-45.36-.06-68.03-.02-3.23,.71-4.48,3.82-4.31,5.01,.27,10.04,.07,15.42,.07v58.1h32.64v18.08h-51.82Z"/></svg>